<?xml version="1.0" encoding="utf-8"?>
<!-- Generator: Adobe Illustrator 16.0.0, SVG Export Plug-In . SVG Version: 6.00 Build 0)  -->
<!DOCTYPE svg PUBLIC "-//W3C//DTD SVG 1.1//EN" "http://www.w3.org/Graphics/SVG/1.1/DTD/svg11.dtd" [
	<!ENTITY ns_extend "http://ns.adobe.com/Extensibility/1.0/">
	<!ENTITY ns_ai "http://ns.adobe.com/AdobeIllustrator/10.0/">
	<!ENTITY ns_graphs "http://ns.adobe.com/Graphs/1.0/">
	<!ENTITY ns_vars "http://ns.adobe.com/Variables/1.0/">
	<!ENTITY ns_imrep "http://ns.adobe.com/ImageReplacement/1.0/">
	<!ENTITY ns_sfw "http://ns.adobe.com/SaveForWeb/1.0/">
	<!ENTITY ns_custom "http://ns.adobe.com/GenericCustomNamespace/1.0/">
	<!ENTITY ns_adobe_xpath "http://ns.adobe.com/XPath/1.0/">
]>
<svg version="1.1" id="Layer_1" xmlns:x="&ns_extend;" xmlns:i="&ns_ai;" xmlns:graph="&ns_graphs;"
	 xmlns="http://www.w3.org/2000/svg" xmlns:xlink="http://www.w3.org/1999/xlink" x="0px" y="0px" width="521px" height="148px"
	 viewBox="0 0 521 148" enable-background="new 0 0 521 148" xml:space="preserve">
<metadata>
	<sfw  xmlns="&ns_sfw;">
		<slices></slices>
		<sliceSourceBounds  height="353.105" width="514.656" y="66.095" x="60" bottomLeftOrigin="true"></sliceSourceBounds>
		<optimizationSettings>
			<targetSettings  fileFormat="PNG24Format" targetSettingsID="0">
				<PNG24Format  transparency="true" filtered="false" matteColor="#FFFFFF" noMatteColor="false" interlaced="false">
					</PNG24Format>
			</targetSettings>
		</optimizationSettings>
	</sfw>
</metadata>
<g>
	<rect x="173.555" y="8.095" fill="#58595B" width="7.087" height="131.811"/>
	<rect x="6.344" y="19.433" fill="#58595B" width="39.838" height="113.386"/>
	<rect x="51.001" y="19.433" fill="#58595B" width="39.838" height="113.386"/>
	<path fill="#F58220" d="M158.046,55.029l1.322-39.848h-1.322c-40.963,1.519-55.15,27.356-59.975,42.68
		c-0.012,0.043-2.414,9.188-2.414,18.25v32.764v23.943h39.839v-23.943h22.55V69.026h-22.55
		C135.496,55.023,158.046,55.029,158.046,55.029"/>
	<rect x="196.231" y="15.181" fill="#58595B" width="3.451" height="28.581"/>
	<path fill="#58595B" d="M219.688,31.116c1.735,2.521,3.451,5.114,5.144,7.776h0.127c-0.184-2.777-0.274-5.611-0.274-8.502V15.181
		h3.471v28.581h-3.45l-11.114-15.935c-1.919-2.777-3.633-5.369-5.144-7.775h-0.127c0.183,2.606,0.276,5.646,0.276,9.121v14.589
		h-3.451V15.181h3.43L219.688,31.116z"/>
	<path fill="#58595B" d="M256.546,29.343c0,1.667-0.204,3.232-0.615,4.699c-0.408,1.467-1.026,2.788-1.853,3.963
		c-0.825,1.175-1.855,2.19-3.09,3.044c-1.235,0.854-2.678,1.516-4.329,1.986c-0.945,0.271-1.969,0.459-3.069,0.566
		s-2.293,0.16-3.578,0.16h-6.413V15.18h6.477c1.284,0,2.478,0.054,3.578,0.161c1.102,0.106,2.123,0.295,3.069,0.565
		c1.65,0.471,3.094,1.126,4.329,1.966c1.234,0.841,2.258,1.833,3.069,2.98c0.812,1.146,1.418,2.435,1.821,3.866
		C256.346,26.149,256.546,27.691,256.546,29.343 M253.115,29.343c0-2.748-0.601-4.977-1.802-6.686s-2.924-2.919-5.17-3.631
		c-0.858-0.271-1.816-0.456-2.874-0.556c-1.059-0.1-2.253-0.149-3.582-0.149h-2.639v22.301h2.639c1.329,0,2.523-0.05,3.582-0.15
		c1.058-0.099,2.016-0.285,2.874-0.555c2.246-0.713,3.969-1.959,5.17-3.739C252.515,34.398,253.115,32.12,253.115,29.343"/>
	<path fill="#58595B" d="M286.27,29.493c0,2.086-0.311,4.001-0.924,5.744c-0.617,1.744-1.498,3.247-2.648,4.51
		c-1.148,1.263-2.529,2.247-4.146,2.954c-1.617,0.708-3.428,1.061-5.43,1.061c-2.072,0-3.926-0.353-5.563-1.061
		c-1.639-0.707-3.025-1.691-4.16-2.954c-1.133-1.263-2.002-2.766-2.604-4.51c-0.602-1.743-0.903-3.658-0.903-5.744
		c0-2.102,0.312-4.026,0.935-5.777c0.623-1.75,1.506-3.256,2.646-4.519c1.141-1.263,2.523-2.248,4.146-2.955
		c1.625-0.707,3.445-1.061,5.461-1.061c2.059,0,3.902,0.354,5.533,1.061s3.014,1.692,4.148,2.955
		c1.135,1.263,2.002,2.769,2.604,4.519C285.967,25.467,286.27,27.391,286.27,29.493 M282.838,29.493c0-1.854-0.25-3.487-0.748-4.901
		c-0.5-1.414-1.188-2.595-2.064-3.542c-0.877-0.948-1.912-1.664-3.104-2.152c-1.191-0.487-2.473-0.731-3.842-0.731
		s-2.65,0.244-3.842,0.731c-1.191,0.488-2.225,1.204-3.102,2.152c-0.879,0.947-1.566,2.128-2.066,3.542
		c-0.5,1.414-0.75,3.047-0.75,4.901c0,1.853,0.254,3.483,0.76,4.89c0.506,1.407,1.199,2.584,2.076,3.531s1.912,1.662,3.104,2.142
		s2.479,0.721,3.863,0.721c1.369,0,2.645-0.241,3.82-0.721s2.205-1.195,3.082-2.142s1.564-2.124,2.064-3.531
		C282.588,32.976,282.838,31.346,282.838,29.493"/>
	<path fill="#58595B" d="M305.428,31.116c1.736,2.521,3.451,5.114,5.145,7.776h0.127c-0.182-2.777-0.275-5.611-0.275-8.502V15.181
		h3.473v28.581h-3.451L299.33,27.827c-1.918-2.777-3.633-5.369-5.143-7.775h-0.127c0.182,2.606,0.275,5.646,0.275,9.121v14.589
		h-3.451V15.181h3.43L305.428,31.116z"/>
	<polygon fill="#58595B" points="322.787,40.622 337.311,40.622 337.311,43.762 319.338,43.762 319.338,15.181 336.525,15.181 
		336.525,18.321 322.787,18.321 322.787,27.549 335.004,27.549 335.004,30.688 322.787,30.688 	"/>
	<path fill="#58595B" d="M344.254,22.985c0,0.811,0.17,1.48,0.508,2.008c0.338,0.529,0.791,0.965,1.361,1.307
		c0.57,0.344,1.232,0.625,1.984,0.845c0.752,0.22,1.537,0.425,2.354,0.617c1.098,0.261,2.178,0.55,3.24,0.865
		c1.063,0.316,2.008,0.752,2.838,1.308c0.83,0.556,1.502,1.28,2.018,2.172c0.514,0.893,0.77,2.039,0.77,3.439
		c0,1.428-0.277,2.659-0.834,3.696c-0.555,1.036-1.326,1.888-2.307,2.554c-0.982,0.666-2.145,1.16-3.484,1.482
		c-1.342,0.323-2.809,0.484-4.402,0.484c-0.734,0-1.484-0.045-2.256-0.134c-0.768-0.089-1.502-0.209-2.201-0.36
		c-0.697-0.151-1.33-0.323-1.895-0.515c-0.564-0.192-1.008-0.384-1.334-0.577v-3.067c0.508,0.246,1.08,0.473,1.715,0.679
		c0.635,0.205,1.291,0.381,1.969,0.525c0.678,0.144,1.361,0.257,2.055,0.339c0.689,0.083,1.34,0.125,1.947,0.125
		c0.986,0,1.93-0.083,2.824-0.248c0.898-0.164,1.684-0.439,2.361-0.823c0.678-0.385,1.213-0.91,1.609-1.575
		c0.393-0.667,0.594-1.5,0.594-2.502c0-0.825-0.174-1.503-0.52-2.039c-0.348-0.535-0.809-0.979-1.389-1.329
		c-0.578-0.349-1.244-0.634-2-0.854c-0.754-0.219-1.547-0.425-2.381-0.618c-1.1-0.247-2.176-0.525-3.229-0.833
		c-1.051-0.31-1.988-0.738-2.814-1.287c-0.826-0.549-1.49-1.257-1.99-2.121c-0.502-0.865-0.752-1.97-0.752-3.316
		c0-1.4,0.264-2.604,0.789-3.614c0.527-1.008,1.24-1.842,2.139-2.501c0.9-0.659,1.936-1.147,3.107-1.463
		c1.17-0.315,2.418-0.473,3.746-0.473c1.508,0,2.918,0.141,4.223,0.423c1.307,0.281,2.5,0.648,3.588,1.101v3.109
		c-1.172-0.48-2.383-0.871-3.631-1.173c-1.25-0.302-2.586-0.46-4.012-0.474c-1.072,0-2.004,0.113-2.793,0.339
		c-0.791,0.227-1.447,0.55-1.969,0.969c-0.523,0.418-0.91,0.926-1.164,1.523C344.383,21.595,344.254,22.257,344.254,22.985"/>
	<rect x="363.689" y="15.181" fill="#58595B" width="3.449" height="28.581"/>
	<path fill="#58595B" d="M369.746,43.762l11.535-28.581h2.984l11.539,28.581h-3.748l-3.381-8.609h-11.842l-3.385,8.609H369.746z
		 M382.742,19.624c-1.264,3.557-2.471,6.79-3.619,9.698l-1.061,2.692h9.389l-1.072-2.69c-1.164-2.959-2.348-6.193-3.553-9.7H382.742
		z"/>
	<rect x="196.231" y="59.977" fill="#58595B" width="3.451" height="28.581"/>
	<path fill="#58595B" d="M219.688,75.911c1.735,2.521,3.451,5.114,5.144,7.776h0.127c-0.184-2.777-0.274-5.611-0.274-8.503V59.976
		h3.471v28.581h-3.45l-11.114-15.935c-1.919-2.775-3.633-5.369-5.144-7.775h-0.127c0.183,2.606,0.276,5.646,0.276,9.121v14.589
		h-3.451V59.976h3.43L219.688,75.911z"/>
	<polygon fill="#58595B" points="237.049,88.558 233.599,88.558 233.599,59.977 250.49,59.977 250.49,63.116 237.049,63.116 
		237.049,72.345 248.967,72.345 248.967,75.484 237.049,75.484 	"/>
	<path fill="#58595B" d="M257.182,76.723v11.834h-3.451V59.976h7.338c1.242,0,2.295,0.047,3.162,0.14
		c0.869,0.092,1.66,0.238,2.379,0.437c1.973,0.542,3.482,1.463,4.525,2.767c1.043,1.302,1.564,2.929,1.564,4.88
		c0,1.154-0.184,2.186-0.551,3.098c-0.367,0.911-0.881,1.702-1.545,2.371s-1.457,1.217-2.381,1.646
		c-0.924,0.427-1.953,0.739-3.08,0.939v0.086l8.383,12.217h-3.451l-8.723-11.834H257.182z M257.182,63.116v10.467h3.41
		c1.057,0,1.961-0.035,2.709-0.107c0.748-0.069,1.418-0.199,2.012-0.383c1.199-0.371,2.121-0.962,2.773-1.773
		c0.648-0.812,0.973-1.872,0.973-3.182c-0.014-1.227-0.324-2.213-0.932-2.959c-0.607-0.748-1.447-1.286-2.52-1.613
		c-0.508-0.157-1.115-0.271-1.82-0.342c-0.705-0.071-1.602-0.107-2.689-0.107H257.182z"/>
	<path fill="#58595B" d="M274.797,88.558l11.535-28.581h2.984l11.539,28.581h-3.748l-3.381-8.608h-11.842l-3.385,8.608H274.797z
		 M287.793,64.42c-1.264,3.558-2.471,6.79-3.619,9.698l-1.061,2.691h9.389l-1.072-2.689c-1.162-2.961-2.348-6.194-3.551-9.7H287.793
		z"/>
	<path fill="#58595B" d="M306.213,67.78c0,0.811,0.17,1.479,0.506,2.008c0.34,0.529,0.793,0.965,1.361,1.308
		c0.57,0.344,1.234,0.625,1.986,0.845c0.75,0.219,1.537,0.426,2.352,0.617c1.1,0.262,2.18,0.55,3.242,0.865
		c1.063,0.316,2.008,0.752,2.838,1.308c0.83,0.557,1.502,1.28,2.018,2.172c0.512,0.893,0.77,2.039,0.77,3.439
		c0,1.428-0.277,2.659-0.834,3.696c-0.557,1.035-1.326,1.888-2.309,2.554c-0.98,0.665-2.143,1.159-3.484,1.481
		c-1.34,0.323-2.807,0.484-4.4,0.484c-0.734,0-1.486-0.045-2.256-0.134c-0.77-0.09-1.504-0.209-2.201-0.36
		c-0.699-0.151-1.33-0.323-1.896-0.515c-0.563-0.192-1.006-0.385-1.332-0.577v-3.067c0.508,0.246,1.078,0.474,1.715,0.68
		c0.635,0.205,1.291,0.381,1.969,0.524s1.361,0.257,2.053,0.339c0.691,0.083,1.342,0.125,1.949,0.125
		c0.986,0,1.928-0.084,2.824-0.249c0.896-0.164,1.684-0.438,2.361-0.822s1.213-0.909,1.609-1.575
		c0.393-0.665,0.592-1.499,0.592-2.502c0-0.823-0.174-1.503-0.52-2.038s-0.809-0.979-1.387-1.328c-0.578-0.351-1.246-0.635-2-0.854
		s-1.549-0.426-2.381-0.618c-1.1-0.247-2.178-0.525-3.229-0.834c-1.051-0.31-1.99-0.737-2.814-1.287
		c-0.828-0.549-1.49-1.256-1.99-2.12c-0.502-0.865-0.752-1.97-0.752-3.315c0-1.401,0.262-2.604,0.789-3.614
		c0.527-1.01,1.24-1.843,2.139-2.503c0.9-0.658,1.934-1.146,3.105-1.462c1.17-0.315,2.42-0.473,3.748-0.473
		c1.508,0,2.916,0.14,4.221,0.422c1.307,0.282,2.502,0.649,3.588,1.102v3.109c-1.17-0.48-2.381-0.871-3.629-1.174
		c-1.25-0.301-2.586-0.46-4.012-0.473c-1.072,0-2.004,0.113-2.793,0.34c-0.791,0.226-1.449,0.548-1.971,0.967
		c-0.523,0.42-0.908,0.927-1.164,1.524C306.34,66.391,306.213,67.053,306.213,67.78"/>
	<polygon fill="#58595B" points="335.809,88.558 332.359,88.558 332.359,63.116 322.896,63.116 322.896,59.977 345.271,59.977 
		345.271,63.116 335.809,63.116 	"/>
	<path fill="#58595B" d="M351.434,76.723v11.834h-3.451V59.976h7.338c1.24,0,2.295,0.047,3.16,0.14
		c0.867,0.092,1.66,0.238,2.381,0.437c1.971,0.542,3.48,1.463,4.523,2.767c1.043,1.302,1.566,2.929,1.566,4.88
		c0,1.154-0.186,2.186-0.551,3.098c-0.367,0.911-0.883,1.702-1.545,2.371c-0.664,0.669-1.457,1.217-2.383,1.646
		c-0.926,0.427-1.951,0.739-3.08,0.939v0.086l8.383,12.217h-3.449l-8.723-11.834H351.434z M351.434,63.116v10.467h3.406
		c1.061,0,1.963-0.035,2.711-0.107c0.748-0.069,1.418-0.199,2.012-0.383c1.199-0.371,2.123-0.962,2.771-1.773
		c0.65-0.812,0.975-1.872,0.975-3.182c-0.014-1.227-0.324-2.213-0.932-2.959c-0.605-0.748-1.447-1.286-2.518-1.613
		c-0.51-0.157-1.115-0.271-1.822-0.342c-0.705-0.071-1.6-0.107-2.689-0.107H351.434z"/>
	<path fill="#58595B" d="M382.85,85.518c1.029,0,1.943-0.118,2.74-0.357c0.799-0.236,1.492-0.573,2.086-1.007
		c0.594-0.432,1.086-0.953,1.482-1.562c0.395-0.608,0.699-1.282,0.91-2.023c0.141-0.461,0.238-0.975,0.297-1.541
		c0.055-0.566,0.084-1.114,0.084-1.646V59.977h3.451v17.32c0,0.658-0.035,1.343-0.107,2.055c-0.07,0.714-0.182,1.378-0.338,1.993
		c-0.268,1.034-0.67,1.991-1.207,2.872c-0.535,0.882-1.234,1.644-2.096,2.286s-1.895,1.146-3.102,1.51
		c-1.207,0.362-2.621,0.545-4.244,0.545c-1.553,0-2.914-0.168-4.086-0.503s-2.176-0.801-3.016-1.395s-1.529-1.301-2.064-2.119
		c-0.535-0.817-0.951-1.709-1.25-2.672c-0.211-0.699-0.361-1.448-0.453-2.245c-0.094-0.797-0.139-1.572-0.139-2.327v-17.32h3.451
		v17.404c0,0.629,0.045,1.275,0.137,1.939c0.094,0.664,0.236,1.269,0.436,1.814c0.494,1.355,1.314,2.425,2.465,3.208
		C379.438,85.125,380.957,85.518,382.85,85.518"/>
	<path fill="#58595B" d="M412.943,62.962c-1.586,0-3.068,0.244-4.445,0.731c-1.381,0.488-2.576,1.215-3.59,2.183
		c-1.018,0.968-1.816,2.169-2.402,3.604c-0.586,1.434-0.877,3.104-0.877,5.013c0,1.895,0.27,3.539,0.813,4.932
		c0.543,1.395,1.314,2.547,2.314,3.459c1,0.913,2.203,1.59,3.611,2.029c1.406,0.439,2.975,0.659,4.703,0.659
		c0.471,0,0.973-0.025,1.498-0.072c0.529-0.048,1.063-0.117,1.598-0.206c0.537-0.09,1.057-0.192,1.564-0.309
		c0.506-0.116,0.961-0.244,1.361-0.381v2.965c-0.834,0.315-1.799,0.559-2.9,0.73c-1.1,0.172-2.229,0.258-3.387,0.258
		c-2.355,0-4.445-0.318-6.266-0.957c-1.822-0.639-3.35-1.556-4.584-2.75s-2.17-2.652-2.805-4.375s-0.951-3.677-0.951-5.858
		c0-2.142,0.334-4.112,1.004-5.91c0.672-1.798,1.637-3.343,2.9-4.633s2.795-2.296,4.594-3.017c1.801-0.72,3.82-1.081,6.064-1.081
		c0.594,0,1.178,0.025,1.758,0.072c0.578,0.048,1.133,0.118,1.662,0.207c0.529,0.089,1.02,0.195,1.471,0.318
		c0.451,0.124,0.84,0.255,1.164,0.391v2.965c-0.857-0.273-1.793-0.504-2.809-0.689C414.994,63.055,413.971,62.962,412.943,62.962"/>
	<polygon fill="#58595B" points="433.234,88.558 429.785,88.558 429.785,63.116 420.322,63.116 420.322,59.977 442.697,59.977 
		442.697,63.116 433.234,63.116 	"/>
	<path fill="#58595B" d="M456.352,85.518c1.029,0,1.943-0.118,2.742-0.357c0.797-0.236,1.492-0.573,2.086-1.007
		c0.592-0.432,1.086-0.953,1.482-1.562c0.393-0.608,0.697-1.282,0.908-2.023c0.141-0.461,0.24-0.975,0.299-1.541
		c0.055-0.566,0.082-1.114,0.082-1.646V59.977h3.451v17.32c0,0.658-0.035,1.343-0.105,2.055c-0.07,0.714-0.184,1.378-0.34,1.993
		c-0.268,1.034-0.67,1.991-1.207,2.872c-0.535,0.882-1.234,1.644-2.094,2.286c-0.861,0.643-1.895,1.146-3.102,1.51
		c-1.207,0.362-2.623,0.545-4.244,0.545c-1.555,0-2.914-0.168-4.088-0.503c-1.17-0.335-2.176-0.801-3.016-1.395
		c-0.838-0.594-1.527-1.301-2.064-2.119c-0.535-0.817-0.951-1.709-1.248-2.672c-0.211-0.699-0.363-1.448-0.455-2.245
		s-0.139-1.572-0.139-2.327v-17.32h3.451v17.404c0,0.629,0.045,1.275,0.139,1.939c0.092,0.664,0.236,1.269,0.434,1.814
		c0.494,1.355,1.316,2.425,2.467,3.208C452.939,85.125,454.461,85.518,456.352,85.518"/>
	<path fill="#58595B" d="M476.211,76.723v11.834h-3.451V59.976h7.338c1.24,0,2.295,0.047,3.162,0.14
		c0.865,0.092,1.658,0.238,2.379,0.437c1.973,0.542,3.48,1.463,4.523,2.767c1.045,1.302,1.566,2.929,1.566,4.88
		c0,1.154-0.186,2.186-0.551,3.098c-0.367,0.911-0.883,1.702-1.545,2.371c-0.664,0.669-1.457,1.217-2.383,1.646
		c-0.924,0.427-1.949,0.739-3.08,0.939v0.086l8.383,12.217h-3.449l-8.723-11.834H476.211z M476.211,63.116v10.467h3.408
		c1.059,0,1.961-0.035,2.709-0.107c0.748-0.069,1.418-0.199,2.012-0.383c1.199-0.371,2.123-0.962,2.771-1.773
		c0.652-0.812,0.975-1.872,0.975-3.182c-0.014-1.227-0.322-2.213-0.932-2.959c-0.605-0.748-1.447-1.286-2.518-1.613
		c-0.51-0.157-1.115-0.271-1.822-0.342c-0.705-0.071-1.602-0.107-2.688-0.107H476.211z"/>
	<polygon fill="#58595B" points="500.133,85.418 514.656,85.418 514.656,88.558 496.682,88.558 496.682,59.977 513.871,59.977 
		513.871,63.116 500.133,63.116 500.133,72.344 512.348,72.344 512.348,75.483 500.133,75.483 	"/>
	<polygon fill="#58595B" points="199.683,132.818 196.231,132.818 196.231,104.237 213.124,104.237 213.124,107.377 
		199.683,107.377 199.683,116.605 211.601,116.605 211.601,119.745 199.683,119.745 	"/>
	<rect x="216.364" y="104.237" fill="#58595B" width="3.451" height="28.581"/>
	<path fill="#58595B" d="M239.821,120.172c1.735,2.521,3.451,5.114,5.145,7.775h0.127c-0.185-2.776-0.275-5.609-0.275-8.502v-15.209
		h3.471v28.581h-3.449l-11.114-15.934c-1.919-2.777-3.634-5.369-5.145-7.776h-0.127c0.184,2.606,0.276,5.646,0.276,9.121v14.589
		h-3.451v-28.581h3.429L239.821,120.172z"/>
	<path fill="#58595B" d="M250.873,132.818l11.537-28.581h2.984l11.539,28.581h-3.748l-3.381-8.608h-11.844l-3.383,8.608H250.873z
		 M263.873,108.681c-1.266,3.558-2.473,6.79-3.622,9.698l-1.059,2.691h9.388l-1.074-2.689c-1.162-2.96-2.344-6.193-3.549-9.7
		H263.873z"/>
	<path fill="#58595B" d="M294.082,120.172c1.734,2.521,3.449,5.114,5.145,7.775h0.127c-0.184-2.776-0.275-5.609-0.275-8.502v-15.209
		h3.471v28.581H299.1l-11.115-15.934c-1.92-2.777-3.633-5.369-5.143-7.776h-0.127c0.182,2.606,0.273,5.646,0.273,9.121v14.589
		h-3.451v-28.581h3.432L294.082,120.172z"/>
	<path fill="#58595B" d="M321.678,107.223c-1.586,0-3.068,0.244-4.445,0.73c-1.381,0.489-2.576,1.217-3.59,2.185
		c-1.018,0.968-1.816,2.169-2.402,3.604s-0.877,3.105-0.877,5.014c0,1.894,0.27,3.538,0.813,4.932
		c0.543,1.393,1.314,2.546,2.314,3.459s2.203,1.59,3.611,2.028c1.406,0.439,2.975,0.659,4.701,0.659c0.473,0,0.973-0.024,1.5-0.072
		c0.529-0.048,1.063-0.116,1.598-0.206c0.537-0.089,1.057-0.192,1.564-0.31c0.506-0.115,0.961-0.243,1.361-0.38v2.964
		c-0.834,0.317-1.799,0.56-2.9,0.732c-1.102,0.171-2.23,0.257-3.387,0.257c-2.355,0-4.447-0.318-6.266-0.957
		c-1.822-0.639-3.35-1.555-4.584-2.749c-1.234-1.195-2.17-2.653-2.805-4.375c-0.635-1.724-0.951-3.676-0.951-5.859
		c0-2.142,0.334-4.111,1.004-5.91c0.672-1.797,1.637-3.343,2.9-4.633s2.795-2.296,4.594-3.017c1.801-0.721,3.82-1.081,6.064-1.081
		c0.594,0,1.178,0.024,1.758,0.072c0.578,0.048,1.133,0.117,1.662,0.206c0.529,0.09,1.02,0.195,1.471,0.319s0.84,0.254,1.164,0.391
		v2.965c-0.857-0.273-1.795-0.504-2.809-0.688C323.729,107.316,322.705,107.223,321.678,107.223"/>
	<polygon fill="#58595B" points="335.258,129.679 349.779,129.679 349.779,132.818 331.807,132.818 331.807,104.237 
		348.996,104.237 348.996,107.377 335.258,107.377 335.258,116.605 347.473,116.605 347.473,119.744 335.258,119.744 	"/>
</g>
</svg>
